<mxfile host="app.diagrams.net" modified="2024-03-30T22:39:57.835Z" agent="Mozilla/5.0 (Windows NT 10.0; Win64; x64) AppleWebKit/537.36 (KHTML, like Gecko) Chrome/117.0.0.0 Safari/537.36" etag="9QYXSPD-W-DpDNVAHFXG" version="24.0.1" type="device">
  <diagram id="C5RBs43oDa-KdzZeNtuy" name="Page-1">
    <mxGraphModel dx="1354" dy="610" grid="1" gridSize="10" guides="1" tooltips="1" connect="1" arrows="1" fold="1" page="1" pageScale="1" pageWidth="827" pageHeight="1169" math="0" shadow="0">
      <root>
        <mxCell id="WIyWlLk6GJQsqaUBKTNV-0" />
        <mxCell id="WIyWlLk6GJQsqaUBKTNV-1" parent="WIyWlLk6GJQsqaUBKTNV-0" />
        <mxCell id="sqJwHTMN-grWhXVN-5Vf-13" value="" style="edgeStyle=orthogonalEdgeStyle;rounded=0;orthogonalLoop=1;jettySize=auto;html=1;" edge="1" parent="WIyWlLk6GJQsqaUBKTNV-1" source="WIyWlLk6GJQsqaUBKTNV-3" target="sqJwHTMN-grWhXVN-5Vf-12">
          <mxGeometry relative="1" as="geometry" />
        </mxCell>
        <mxCell id="WIyWlLk6GJQsqaUBKTNV-3" value="Program Starts" style="rounded=1;whiteSpace=wrap;html=1;fontSize=12;glass=0;strokeWidth=1;shadow=0;" parent="WIyWlLk6GJQsqaUBKTNV-1" vertex="1">
          <mxGeometry x="340" y="50" width="120" height="40" as="geometry" />
        </mxCell>
        <mxCell id="sqJwHTMN-grWhXVN-5Vf-5" value="" style="edgeStyle=orthogonalEdgeStyle;rounded=0;orthogonalLoop=1;jettySize=auto;html=1;" edge="1" parent="WIyWlLk6GJQsqaUBKTNV-1" source="sqJwHTMN-grWhXVN-5Vf-2" target="sqJwHTMN-grWhXVN-5Vf-4">
          <mxGeometry relative="1" as="geometry" />
        </mxCell>
        <mxCell id="sqJwHTMN-grWhXVN-5Vf-7" value="" style="edgeStyle=orthogonalEdgeStyle;rounded=0;orthogonalLoop=1;jettySize=auto;html=1;" edge="1" parent="WIyWlLk6GJQsqaUBKTNV-1" source="sqJwHTMN-grWhXVN-5Vf-2" target="sqJwHTMN-grWhXVN-5Vf-6">
          <mxGeometry relative="1" as="geometry" />
        </mxCell>
        <mxCell id="sqJwHTMN-grWhXVN-5Vf-2" value="User Makes&amp;nbsp;&lt;div&gt;Request&lt;/div&gt;" style="shape=parallelogram;perimeter=parallelogramPerimeter;whiteSpace=wrap;html=1;fixedSize=1;" vertex="1" parent="WIyWlLk6GJQsqaUBKTNV-1">
          <mxGeometry x="340" y="225" width="120" height="60" as="geometry" />
        </mxCell>
        <mxCell id="sqJwHTMN-grWhXVN-5Vf-9" value="" style="edgeStyle=orthogonalEdgeStyle;rounded=0;orthogonalLoop=1;jettySize=auto;html=1;" edge="1" parent="WIyWlLk6GJQsqaUBKTNV-1" source="sqJwHTMN-grWhXVN-5Vf-4" target="sqJwHTMN-grWhXVN-5Vf-8">
          <mxGeometry relative="1" as="geometry" />
        </mxCell>
        <mxCell id="sqJwHTMN-grWhXVN-5Vf-4" value="Requested&lt;div&gt;Stash Import?&lt;/div&gt;" style="rhombus;whiteSpace=wrap;html=1;" vertex="1" parent="WIyWlLk6GJQsqaUBKTNV-1">
          <mxGeometry x="200" y="210" width="100" height="90" as="geometry" />
        </mxCell>
        <mxCell id="sqJwHTMN-grWhXVN-5Vf-16" value="" style="edgeStyle=orthogonalEdgeStyle;rounded=0;orthogonalLoop=1;jettySize=auto;html=1;" edge="1" parent="WIyWlLk6GJQsqaUBKTNV-1" source="sqJwHTMN-grWhXVN-5Vf-6" target="sqJwHTMN-grWhXVN-5Vf-15">
          <mxGeometry relative="1" as="geometry" />
        </mxCell>
        <mxCell id="sqJwHTMN-grWhXVN-5Vf-6" value="Requested&lt;div&gt;Stash Export?&lt;/div&gt;" style="rhombus;whiteSpace=wrap;html=1;" vertex="1" parent="WIyWlLk6GJQsqaUBKTNV-1">
          <mxGeometry x="500" y="210" width="100" height="90" as="geometry" />
        </mxCell>
        <mxCell id="sqJwHTMN-grWhXVN-5Vf-11" value="" style="edgeStyle=orthogonalEdgeStyle;rounded=0;orthogonalLoop=1;jettySize=auto;html=1;" edge="1" parent="WIyWlLk6GJQsqaUBKTNV-1" source="sqJwHTMN-grWhXVN-5Vf-8" target="sqJwHTMN-grWhXVN-5Vf-10">
          <mxGeometry relative="1" as="geometry" />
        </mxCell>
        <mxCell id="sqJwHTMN-grWhXVN-5Vf-8" value="grab contents of save file containing tab to replace and back it up to an external stash" style="rounded=0;whiteSpace=wrap;html=1;" vertex="1" parent="WIyWlLk6GJQsqaUBKTNV-1">
          <mxGeometry x="190" y="320" width="120" height="60" as="geometry" />
        </mxCell>
        <mxCell id="sqJwHTMN-grWhXVN-5Vf-10" value="replace save location of exported stash with desired external stash file" style="rounded=0;whiteSpace=wrap;html=1;" vertex="1" parent="WIyWlLk6GJQsqaUBKTNV-1">
          <mxGeometry x="190" y="400" width="120" height="60" as="geometry" />
        </mxCell>
        <mxCell id="sqJwHTMN-grWhXVN-5Vf-14" value="" style="edgeStyle=orthogonalEdgeStyle;rounded=0;orthogonalLoop=1;jettySize=auto;html=1;" edge="1" parent="WIyWlLk6GJQsqaUBKTNV-1" source="sqJwHTMN-grWhXVN-5Vf-12" target="sqJwHTMN-grWhXVN-5Vf-2">
          <mxGeometry relative="1" as="geometry" />
        </mxCell>
        <mxCell id="sqJwHTMN-grWhXVN-5Vf-18" value="" style="edgeStyle=orthogonalEdgeStyle;rounded=0;orthogonalLoop=1;jettySize=auto;html=1;" edge="1" parent="WIyWlLk6GJQsqaUBKTNV-1" source="sqJwHTMN-grWhXVN-5Vf-12" target="sqJwHTMN-grWhXVN-5Vf-17">
          <mxGeometry relative="1" as="geometry" />
        </mxCell>
        <mxCell id="sqJwHTMN-grWhXVN-5Vf-12" value="Make Decompressed Copy of Save File" style="rounded=0;whiteSpace=wrap;html=1;" vertex="1" parent="WIyWlLk6GJQsqaUBKTNV-1">
          <mxGeometry x="340" y="120" width="120" height="60" as="geometry" />
        </mxCell>
        <mxCell id="sqJwHTMN-grWhXVN-5Vf-20" value="" style="edgeStyle=orthogonalEdgeStyle;rounded=0;orthogonalLoop=1;jettySize=auto;html=1;" edge="1" parent="WIyWlLk6GJQsqaUBKTNV-1" source="sqJwHTMN-grWhXVN-5Vf-15" target="sqJwHTMN-grWhXVN-5Vf-19">
          <mxGeometry relative="1" as="geometry" />
        </mxCell>
        <mxCell id="sqJwHTMN-grWhXVN-5Vf-15" value="Read save to find requested export tab." style="whiteSpace=wrap;html=1;" vertex="1" parent="WIyWlLk6GJQsqaUBKTNV-1">
          <mxGeometry x="490" y="320" width="120" height="60" as="geometry" />
        </mxCell>
        <mxCell id="sqJwHTMN-grWhXVN-5Vf-17" value="Backup entire save file and do not access backups" style="rounded=0;whiteSpace=wrap;html=1;" vertex="1" parent="WIyWlLk6GJQsqaUBKTNV-1">
          <mxGeometry x="500" y="120" width="120" height="60" as="geometry" />
        </mxCell>
        <mxCell id="sqJwHTMN-grWhXVN-5Vf-22" value="" style="edgeStyle=orthogonalEdgeStyle;rounded=0;orthogonalLoop=1;jettySize=auto;html=1;" edge="1" parent="WIyWlLk6GJQsqaUBKTNV-1" source="sqJwHTMN-grWhXVN-5Vf-19" target="sqJwHTMN-grWhXVN-5Vf-21">
          <mxGeometry relative="1" as="geometry" />
        </mxCell>
        <mxCell id="sqJwHTMN-grWhXVN-5Vf-19" value="Copy contents into separate file" style="whiteSpace=wrap;html=1;" vertex="1" parent="WIyWlLk6GJQsqaUBKTNV-1">
          <mxGeometry x="490" y="390" width="120" height="60" as="geometry" />
        </mxCell>
        <mxCell id="sqJwHTMN-grWhXVN-5Vf-21" value="erase original location and replace with empty tab" style="whiteSpace=wrap;html=1;" vertex="1" parent="WIyWlLk6GJQsqaUBKTNV-1">
          <mxGeometry x="490" y="460" width="120" height="60" as="geometry" />
        </mxCell>
        <mxCell id="sqJwHTMN-grWhXVN-5Vf-23" value="" style="endArrow=classic;html=1;rounded=0;exitX=1;exitY=0.5;exitDx=0;exitDy=0;entryX=0.25;entryY=1;entryDx=0;entryDy=0;" edge="1" parent="WIyWlLk6GJQsqaUBKTNV-1" source="sqJwHTMN-grWhXVN-5Vf-10" target="sqJwHTMN-grWhXVN-5Vf-2">
          <mxGeometry width="50" height="50" relative="1" as="geometry">
            <mxPoint x="390" y="340" as="sourcePoint" />
            <mxPoint x="430" y="430" as="targetPoint" />
            <Array as="points">
              <mxPoint x="370" y="430" />
            </Array>
          </mxGeometry>
        </mxCell>
        <mxCell id="sqJwHTMN-grWhXVN-5Vf-24" value="" style="endArrow=classic;html=1;rounded=0;exitX=0;exitY=0.5;exitDx=0;exitDy=0;entryX=0.75;entryY=1;entryDx=0;entryDy=0;" edge="1" parent="WIyWlLk6GJQsqaUBKTNV-1" source="sqJwHTMN-grWhXVN-5Vf-21" target="sqJwHTMN-grWhXVN-5Vf-2">
          <mxGeometry width="50" height="50" relative="1" as="geometry">
            <mxPoint x="390" y="340" as="sourcePoint" />
            <mxPoint x="440" y="290" as="targetPoint" />
            <Array as="points">
              <mxPoint x="430" y="490" />
            </Array>
          </mxGeometry>
        </mxCell>
        <mxCell id="sqJwHTMN-grWhXVN-5Vf-25" value="" style="endArrow=classic;html=1;rounded=0;exitX=0.5;exitY=1;exitDx=0;exitDy=0;entryX=0.5;entryY=0;entryDx=0;entryDy=0;" edge="1" parent="WIyWlLk6GJQsqaUBKTNV-1" source="sqJwHTMN-grWhXVN-5Vf-2" target="sqJwHTMN-grWhXVN-5Vf-26">
          <mxGeometry width="50" height="50" relative="1" as="geometry">
            <mxPoint x="390" y="340" as="sourcePoint" />
            <mxPoint x="400" y="520" as="targetPoint" />
          </mxGeometry>
        </mxCell>
        <mxCell id="sqJwHTMN-grWhXVN-5Vf-26" value="User requests to save results" style="rhombus;whiteSpace=wrap;html=1;" vertex="1" parent="WIyWlLk6GJQsqaUBKTNV-1">
          <mxGeometry x="345" y="480" width="110" height="120" as="geometry" />
        </mxCell>
        <mxCell id="sqJwHTMN-grWhXVN-5Vf-32" value="" style="edgeStyle=orthogonalEdgeStyle;rounded=0;orthogonalLoop=1;jettySize=auto;html=1;" edge="1" parent="WIyWlLk6GJQsqaUBKTNV-1" source="sqJwHTMN-grWhXVN-5Vf-27" target="sqJwHTMN-grWhXVN-5Vf-31">
          <mxGeometry relative="1" as="geometry" />
        </mxCell>
        <mxCell id="sqJwHTMN-grWhXVN-5Vf-27" value="Compress modified save file" style="rounded=0;whiteSpace=wrap;html=1;" vertex="1" parent="WIyWlLk6GJQsqaUBKTNV-1">
          <mxGeometry x="340" y="620" width="120" height="60" as="geometry" />
        </mxCell>
        <mxCell id="sqJwHTMN-grWhXVN-5Vf-29" value="" style="endArrow=classic;html=1;rounded=0;exitX=0.5;exitY=1;exitDx=0;exitDy=0;" edge="1" parent="WIyWlLk6GJQsqaUBKTNV-1" source="sqJwHTMN-grWhXVN-5Vf-26" target="sqJwHTMN-grWhXVN-5Vf-27">
          <mxGeometry width="50" height="50" relative="1" as="geometry">
            <mxPoint x="390" y="640" as="sourcePoint" />
            <mxPoint x="440" y="590" as="targetPoint" />
          </mxGeometry>
        </mxCell>
        <mxCell id="sqJwHTMN-grWhXVN-5Vf-34" value="" style="edgeStyle=orthogonalEdgeStyle;rounded=0;orthogonalLoop=1;jettySize=auto;html=1;" edge="1" parent="WIyWlLk6GJQsqaUBKTNV-1" source="sqJwHTMN-grWhXVN-5Vf-31" target="sqJwHTMN-grWhXVN-5Vf-33">
          <mxGeometry relative="1" as="geometry" />
        </mxCell>
        <mxCell id="sqJwHTMN-grWhXVN-5Vf-31" value="Make backup of old save and store it" style="whiteSpace=wrap;html=1;rounded=0;" vertex="1" parent="WIyWlLk6GJQsqaUBKTNV-1">
          <mxGeometry x="340" y="700" width="120" height="60" as="geometry" />
        </mxCell>
        <mxCell id="sqJwHTMN-grWhXVN-5Vf-33" value="If successful replace with new file" style="rounded=0;whiteSpace=wrap;html=1;" vertex="1" parent="WIyWlLk6GJQsqaUBKTNV-1">
          <mxGeometry x="340" y="780" width="120" height="60" as="geometry" />
        </mxCell>
      </root>
    </mxGraphModel>
  </diagram>
</mxfile>
